<svg width="24" height="24" viewBox="0 0 24 24" fill="none" xmlns="http://www.w3.org/2000/svg">
  <path d="M7 3H13C15.2091 3 17 4.79086 17 7V13C17 13.7956 16.6839 14.5587 16.1213 15.1213L13 18.2426V21C13 21.5523 12.5523 22 12 22H9C8.44772 22 8 21.5523 8 21V18.2426L4.87868 15.1213C4.31607 14.5587 4 13.7956 4 13V7C4 4.79086 5.79086 3 8 3H7Z" stroke="#D4A017" stroke-width="2" stroke-linecap="round" stroke-linejoin="round"/>
  <path d="M8 7H12" stroke="#D4A017" stroke-width="2" stroke-linecap="round" stroke-linejoin="round"/>
  <path d="M8 10H12" stroke="#D4A017" stroke-width="2" stroke-linecap="round" stroke-linejoin="round"/>
  <path d="M17 8H19C20.1046 8 21 8.89543 21 10V12C21 13.1046 20.1046 14 19 14H17" stroke="#D4A017" stroke-width="2" stroke-linecap="round" stroke-linejoin="round"/>
</svg>