<svg width="24" height="24" viewBox="0 0 24 24" fill="none" xmlns="http://www.w3.org/2000/svg">
  <path d="M12 2C10.3431 2 9 3.34315 9 5C9 5.35064 9.07153 5.68563 9.20041 5.99051C7.32843 6.84441 6 8.77252 6 11C6 11.7879 6.15519 12.5393 6.43542 13.2196L4.29289 15.362C3.90237 15.7525 3.90237 16.3857 4.29289 16.7762L7.22386 19.7071C7.61438 20.0976 8.24754 20.0976 8.63807 19.7071L10.7805 17.5646C11.1666 17.6872 11.5756 17.75 12 17.75C12.4244 17.75 12.8334 17.6872 13.2195 17.5646L15.3619 19.7071C15.7525 20.0976 16.3856 20.0976 16.7761 19.7071L19.7071 16.7762C20.0976 16.3857 20.0976 15.7525 19.7071 15.362L17.5646 13.2196C17.8448 12.5393 18 11.7879 18 11C18 8.77252 16.6716 6.84441 14.7996 5.99051C14.9285 5.68563 15 5.35064 15 5C15 3.34315 13.6569 2 12 2Z" stroke="#D4A017" stroke-width="2" stroke-linecap="round" stroke-linejoin="round"/>
  <circle cx="12" cy="11" r="3" stroke="#D4A017" stroke-width="2" stroke-linecap="round" stroke-linejoin="round"/>
</svg>