<svg width="24" height="24" viewBox="0 0 24 24" fill="none" xmlns="http://www.w3.org/2000/svg">
  <path d="M12 3C12 3 8 3 8 7V17C8 21 12 21 12 21C12 21 16 21 16 17V7C16 3 12 3 12 3Z" stroke="#D4A017" stroke-width="2" stroke-linecap="round" stroke-linejoin="round"/>
  <path d="M8 9C8 9 10 10 12 10C14 10 16 9 16 9" stroke="#D4A017" stroke-width="2" stroke-linecap="round" stroke-linejoin="round"/>
  <path d="M8 12C8 12 10 13 12 13C14 13 16 12 16 12" stroke="#D4A017" stroke-width="2" stroke-linecap="round" stroke-linejoin="round"/>
  <path d="M8 15C8 15 10 16 12 16C14 16 16 15 16 15" stroke="#D4A017" stroke-width="2" stroke-linecap="round" stroke-linejoin="round"/>
</svg>